HIERARCHY
ROOT reference
{
  OFFSET 0 0 0
  CHANNELS 6 Xposition Yposition Zposition Zrotation Xrotation Yrotation
  JOINT Hips
  {
    OFFSET 30.4358 98.8683 17.5863
    CHANNELS 3 Zrotation Xrotation Yrotation
    JOINT ToSpine
    {
      OFFSET -0.0105055 1.38907 -7.13956
      CHANNELS 3 Zrotation Xrotation Yrotation
      JOINT Spine
      {
        OFFSET 0.0105055 10 1
        CHANNELS 3 Zrotation Xrotation Yrotation
        JOINT Spine1
        {
          OFFSET 0 12 1.60637
          CHANNELS 3 Zrotation Xrotation Yrotation
          JOINT Neck
          {
            OFFSET 0 27 2.26658
            CHANNELS 3 Zrotation Xrotation Yrotation
            JOINT Head
            {
              OFFSET 0 9 2.12705
              CHANNELS 3 Zrotation Xrotation Yrotation
              End Site
              {
                OFFSET 0 11 2
              }
            }
          }
          JOINT LeftShoulder
          {
            OFFSET 8 19.6109 2.86452
            CHANNELS 3 Zrotation Xrotation Yrotation
            JOINT LeftArm
            {
              OFFSET 12 1 0.681055
              CHANNELS 3 Zrotation Xrotation Yrotation
              JOINT LeftForeArm
              {
                OFFSET 19 0 -1.52608
                CHANNELS 3 Zrotation Xrotation Yrotation
                JOINT LeftHand
                {
                  OFFSET 23 0 0
                  CHANNELS 3 Zrotation Xrotation Yrotation
                  End Site
                  {
                    OFFSET 10 0 0
                  }
                }
              }
            }
          }
          JOINT RightShoulder
          {
            OFFSET -8 19.6109 2.86452
            CHANNELS 3 Zrotation Xrotation Yrotation
            JOINT RightArm
            {
              OFFSET -12 1 0.681055
              CHANNELS 3 Zrotation Xrotation Yrotation
              JOINT RightForeArm
              {
                OFFSET -19 0 -1.52608
                CHANNELS 3 Zrotation Xrotation Yrotation
                JOINT RightHand
                {
                  OFFSET -23 0 0
                  CHANNELS 3 Zrotation Xrotation Yrotation
                  End Site
                  {
                    OFFSET -10 0 0
                  }
                }
              }
            }
          }
        }
      }
    }
    JOINT LeftUpLeg
    {
      OFFSET 9 -7.17245 0
      CHANNELS 3 Zrotation Xrotation Yrotation
      JOINT LeftLeg
      {
        OFFSET 0 -44.1113 0
        CHANNELS 3 Zrotation Xrotation Yrotation
        JOINT LeftFoot
        {
          OFFSET 0 -36.1829 0
          CHANNELS 3 Zrotation Xrotation Yrotation
          JOINT LeftToeBase
          {
            OFFSET 0 -4.84184 13
            CHANNELS 3 Zrotation Xrotation Yrotation
            End Site
            {
              OFFSET 0 1 6
            }
          }
        }
      }
    }
    JOINT RightUpLeg
    {
      OFFSET -9 -7.17245 0
      CHANNELS 3 Zrotation Xrotation Yrotation
      JOINT RightLeg
      {
        OFFSET 0 -44.0551 0
        CHANNELS 3 Zrotation Xrotation Yrotation
        JOINT RightFoot
        {
          OFFSET 0 -36.1469 0
          CHANNELS 3 Zrotation Xrotation Yrotation
          JOINT RightToeBase
          {
            OFFSET 0 -4.92256 13
            CHANNELS 3 Zrotation Xrotation Yrotation
            End Site
            {
              OFFSET 0 1 6
            }
          }
        }
      }
    }
  }
}
MOTION
Frames:	7
Frame Time:	0.0416667
0 0 0 -0 0 0 -0.0324715 -4.73329 -0.058984 -0 0 0 -2.23628 -0.596542 0.622953 1.26611 12.7742 0.246209 7.48237 -21.1815 0.47123 -2.28245 9.16907 1.93295 -30.939 6.62166 -14.2745 -42.1984 23.0813 3.20907 -12.7126 -16.6435 -14.8521 6.59158 0.111106 1.93118 29.4312 7.11224 16.3557 39.5864 13.4896 2.12637 8.50364 -3.94556 10.5028 0.590254 0.0227449 4.49099 2.30614 8.96549 9.47954 -1.38335 4.28458 -1.63146 1.70295 -3.83595 0.0570779 -1.71533 -2.47733 3.35952 -1.46027 7.23273 -7.20542 -0.464845 2.60126 3.40475 3.06916 -6.39479 0.171505 -0.315981 3.13109 1.5604 
0 0 0 -0 0 0 -0.0515877 -4.6541 -0.174604 -0 0 0 -1.97734 -0.876448 0.558347 1.06703 12.8713 0.240335 7.31997 -20.828 0.461212 -2.17432 9.13949 1.89658 -31.1154 6.62272 -14.1949 -42.2726 22.9399 3.29846 -12.8564 -16.9257 -14.6841 6.90036 0.108198 1.79185 29.2687 7.10264 16.4169 39.9894 13.9425 1.24483 8.67663 -5.42085 11.0851 -0.144097 -0.00565258 4.69759 2.18954 8.95125 9.33519 -1.21142 4.16304 -1.32004 1.58887 -3.77136 0.0528732 -1.73725 -2.60768 3.37976 -1.50605 7.126 -7.28848 -0.433531 2.67125 3.41235 3.29259 -6.39266 0.183947 -0.501441 3.44781 2.11163 
0 0 0 -0 0 0 0.131404 -4.89684 -0.133798 -0 0 0 -1.80775 -0.599589 0.416635 0.767777 12.8052 0.18941 6.96753 -20.6247 0.485576 -1.92527 9.18894 1.8186 -31.0755 6.58812 -14.1221 -42.4697 23.2367 3.14774 -12.7275 -17.0521 -15.0883 7.00441 0.117964 1.92799 29.0619 7.0088 16.2698 40.2956 13.6633 1.36658 8.39709 -4.60619 11.1701 0.0262021 0.000768896 4.2208 1.75594 9.30137 8.97711 -0.836724 3.8398 -1.15282 1.09265 -3.50736 0.0330666 -1.90487 -2.65863 3.76978 -1.87186 7.32821 -7.61566 -0.306283 2.78889 3.59761 3.33182 -6.42456 0.185696 -0.758777 3.06504 2.72928 
0 0 0 -0 0 0 0.190419 -4.89834 -0.111887 -0 0 0 -1.85133 -0.855345 0.352622 0.606384 13.0084 0.17381 7.17928 -20.375 0.357756 -2.0276 9.18203 1.77263 -30.8393 6.55618 -14.1475 -42.5746 22.8817 2.63232 -12.3127 -16.4677 -15.339 7.30626 0.100577 1.57898 29.2285 6.95685 16.0366 40.456 13.7676 1.38336 8.2299 -4.86519 11.7096 0.132699 0.00502477 4.30317 1.83295 9.2181 9.09494 -1.02527 4.02874 -1.33756 1.30066 -3.50714 0.0397726 -1.97353 -2.78614 3.90433 -1.9331 7.30125 -7.71285 -0.170343 2.8789 3.81794 3.22146 -6.6331 0.186085 -0.555757 3.08127 2.19078 
0 0 0 -0 0 0 0.00810306 -4.78378 -0.282279 -0 0 0 -2.01286 -1.07416 0.439726 0.903892 12.9858 0.184163 7.248 -20.0704 0.262511 -2.13276 8.88692 1.73973 -30.8469 6.57305 -14.1886 -42.6633 24.6433 2.58992 -12.0721 -18.092 -17.1901 7.51429 0.0910467 1.37894 29.259 6.92679 15.9374 40.7581 14.0779 1.30523 8.01822 -5.39566 12.553 0.420856 0.0161479 4.37524 2.29741 9.02686 9.45487 -1.36069 4.2296 -1.32071 1.48743 -3.74059 0.0483531 -1.64507 -2.66178 3.14953 -1.64559 7.11428 -7.53771 -0.184595 2.88955 3.85743 3.3076 -6.49082 0.188308 -0.568164 2.71272 2.15172 
0 0 0 -0 0 0 0.147945 -5.1383 0.061987 -0 0 0 -2.39919 -0.195417 0.277414 1.3529 12.4038 -0.072555 6.79502 -20.0849 0.277992 -1.70226 8.85118 1.57115 -30.8978 6.51427 -14.0091 -42.483 23.3206 1.60329 -11.3186 -16.9672 -17.5133 7.02051 0.0498765 0.824129 29.4069 6.99975 16.0596 41.0642 14.8719 0.750031 7.72543 -7.03049 14.2281 -0.0740436 -0.00307147 4.51363 2.19396 9.35151 9.31705 -1.32787 3.98322 -1.7803 1.59944 -3.41518 0.0480989 -1.968 -2.73136 3.902 -1.71195 7.39164 -7.65667 -0.237946 2.92183 3.62802 3.07338 -5.99808 0.161856 -0.755277 2.32151 2.58588 
0 0 0 -0 0 0 0.207203 -5.22516 0.0263303 -0 0 0 -2.6339 -0.255447 0.327178 1.55746 12.4188 -0.094584 6.63071 -19.7722 0.260806 -1.49334 8.577 1.48951 -31.2744 6.62491 -14.1263 -42.1813 22.5628 1.14331 -10.5692 -16.5469 -18.2774 7.67391 0.0332469 0.494844 29.3678 7.02465 16.1487 41.2133 15.6391 0.816541 7.46393 -7.33628 15.0758 -0.116162 -0.00654644 4.69116 2.19907 9.26945 9.36429 -1.3202 4.31204 -1.84947 1.29656 -3.52452 0.0401557 -1.89124 -2.75018 3.71339 -1.71807 7.47492 -7.61531 -0.284194 2.93667 3.62524 3.62662 -6.78563 0.21468 -0.536883 3.57164 2.23096 
